<?xml version="1.0" encoding="UTF-8"?>
<svg width="240" height="240" viewBox="0 0 240 240" xmlns="http://www.w3.org/2000/svg">

  <defs>
    <linearGradient id="grad1" x1="0%" y1="0%" x2="100%" y2="100%">
      <stop offset="0%" stop-color="#4f46e5"/>
      <stop offset="100%" stop-color="#06b6d4"/>
    </linearGradient>
  </defs>

  <!-- Background Circle -->
  <circle cx="120" cy="120" r="110" fill="url(#grad1)" opacity="0.08"/>

  <!-- Calendar Base -->
  <rect x="55" y="60" width="130" height="120" rx="14" fill="#ffffff" stroke="#4f46e5" stroke-width="3"/>

  <!-- Calendar Header -->
  <rect x="55" y="60" width="130" height="30" rx="14" fill="#4f46e5"/>

  <!-- Binding Rings -->
  <circle cx="90" cy="60" r="6" fill="#ffffff"/>
  <circle cx="150" cy="60" r="6" fill="#ffffff"/>

  <!-- Grid Dots -->
  <circle cx="85" cy="115" r="6" fill="#d1d5db"/>
  <circle cx="120" cy="115" r="6" fill="#d1d5db"/>
  <circle cx="155" cy="115" r="6" fill="#d1d5db"/>

  <circle cx="85" cy="145" r="6" fill="#d1d5db"/>
  <circle cx="120" cy="145" r="6" fill="#10b981"/>
  <circle cx="155" cy="145" r="6" fill="#d1d5db"/>

  <!-- Check Mark -->
  <path d="M100 150 L115 165 L145 130"
        stroke="#10b981"
        stroke-width="6"
        stroke-linecap="round"
        stroke-linejoin="round"
        fill="none"/>

  <!-- Clock Outline -->
  <circle cx="175" cy="175" r="25" fill="#ffffff" stroke="#06b6d4" stroke-width="3"/>
  <line x1="175" y1="175" x2="175" y2="162" stroke="#06b6d4" stroke-width="3" stroke-linecap="round"/>
  <line x1="175" y1="175" x2="187" y2="180" stroke="#06b6d4" stroke-width="3" stroke-linecap="round"/>

</svg>
